<svg width="91" height="91" viewBox="0 0 91 91" fill="none" xmlns="http://www.w3.org/2000/svg">
<path fill-rule="evenodd" clip-rule="evenodd" d="M5.6875 45.5C5.6875 56.0589 9.88202 66.1854 17.3483 73.6517C24.8146 81.118 34.9411 85.3125 45.5 85.3125C56.0589 85.3125 66.1854 81.118 73.6517 73.6517C81.118 66.1854 85.3125 56.0589 85.3125 45.5C85.3125 34.9411 81.118 24.8146 73.6517 17.3483C66.1854 9.88202 56.0589 5.6875 45.5 5.6875C34.9411 5.6875 24.8146 9.88202 17.3483 17.3483C9.88202 24.8146 5.6875 34.9411 5.6875 45.5ZM91 45.5C91 57.5674 86.2063 69.1405 77.6734 77.6734C69.1405 86.2063 57.5674 91 45.5 91C33.4326 91 21.8595 86.2063 13.3266 77.6734C4.79374 69.1405 0 57.5674 0 45.5C0 33.4326 4.79374 21.8595 13.3266 13.3266C21.8595 4.79374 33.4326 0 45.5 0C57.5674 0 69.1405 4.79374 77.6734 13.3266C86.2063 21.8595 91 33.4326 91 45.5ZM48.3438 65.4062C48.3438 66.1605 48.0441 66.8838 47.5108 67.4171C46.9775 67.9504 46.2542 68.25 45.5 68.25C44.7458 68.25 44.0225 67.9504 43.4892 67.4171C42.9559 66.8838 42.6562 66.1605 42.6562 65.4062V32.4586L30.4509 44.6696C29.9169 45.2036 29.1927 45.5036 28.4375 45.5036C27.6823 45.5036 26.9581 45.2036 26.4241 44.6696C25.8901 44.1356 25.5902 43.4114 25.5902 42.6562C25.5902 41.9011 25.8901 41.1769 26.4241 40.6429L43.4866 23.5804C43.7508 23.3155 44.0646 23.1054 44.4101 22.9621C44.7556 22.8187 45.1259 22.7449 45.5 22.7449C45.8741 22.7449 46.2444 22.8187 46.5899 22.9621C46.9354 23.1054 47.2492 23.3155 47.5134 23.5804L64.5759 40.6429C65.1099 41.1769 65.4098 41.9011 65.4098 42.6562C65.4098 43.4114 65.1099 44.1356 64.5759 44.6696C64.0419 45.2036 63.3177 45.5036 62.5625 45.5036C61.8073 45.5036 61.0831 45.2036 60.5491 44.6696L48.3438 32.4586V65.4062Z" fill="#F22F2F"/>
</svg>
