<svg width="33" height="33" viewBox="0 0 33 33" fill="none" xmlns="http://www.w3.org/2000/svg">
<path d="M30.5321 7.61003C25.5957 -0.000251569 15.5172 -2.26277 7.70122 2.46795C0.0909388 7.19866 -2.37726 17.4828 2.55914 25.0931L2.9705 25.7101L1.32504 31.8806L7.49553 30.2352L8.11259 30.6465C10.7865 32.0863 13.666 32.9091 16.5456 32.9091C19.6308 32.9091 22.7161 32.0863 25.39 30.4409C33.0003 25.5045 35.2628 15.426 30.5321 7.61003ZM26.2127 23.4476C25.39 24.6817 24.3616 25.5045 22.9218 25.7101C22.099 25.7101 21.0706 26.1215 16.957 24.476C13.4603 22.8306 10.5808 20.1567 8.52395 17.0715C7.28985 15.6317 6.6728 13.7805 6.46712 11.9294C6.46712 10.2839 7.08417 8.84413 8.11259 7.81571C8.52395 7.40434 8.93532 7.19866 9.34668 7.19866H10.3751C10.7865 7.19866 11.1978 7.19866 11.4035 8.02139C11.8149 9.04981 12.8433 11.518 12.8433 11.7237C13.049 11.9294 13.049 12.3407 12.8433 12.5464C13.049 12.9578 12.8433 13.3692 12.6376 13.5748C12.4319 13.7805 12.2262 14.1919 12.0206 14.3976C11.6092 14.6033 11.4035 15.0146 11.6092 15.426C12.4319 16.6601 13.4603 17.8942 14.4888 18.9226C15.7229 19.951 16.957 20.7738 18.3967 21.3908C18.8081 21.5965 19.2195 21.5965 19.4252 21.1851C19.6308 20.7738 20.6593 19.7453 21.0706 19.334C21.482 18.9226 21.6877 18.9226 22.099 19.1283L25.39 20.7738C25.8013 20.9794 26.2127 21.1851 26.4184 21.3908C26.6241 22.0079 26.6241 22.8306 26.2127 23.4476Z" fill="black"/>
</svg>
