<svg width="32" height="32" viewBox="0 0 32 32" fill="none" xmlns="http://www.w3.org/2000/svg">
<path d="M16.0881 10.7932C13.221 10.7932 10.8811 13.133 10.8811 16.0002C10.8811 18.8674 13.221 21.2072 16.0881 21.2072C18.9553 21.2072 21.2952 18.8674 21.2952 16.0002C21.2952 13.133 18.9553 10.7932 16.0881 10.7932ZM31.7053 16.0002C31.7053 13.8439 31.7249 11.7072 31.6038 9.55487C31.4827 7.05487 30.9124 4.83612 29.0842 3.008C27.2522 1.17597 25.0374 0.60956 22.5374 0.488467C20.3811 0.367373 18.2444 0.386904 16.092 0.386904C13.9358 0.386904 11.7991 0.367373 9.64673 0.488467C7.14673 0.60956 4.92798 1.17987 3.09986 3.008C1.26782 4.84003 0.701418 7.05487 0.580324 9.55487C0.459231 11.7111 0.478762 13.8478 0.478762 16.0002C0.478762 18.1525 0.459231 20.2932 0.580324 22.4455C0.701418 24.9455 1.27173 27.1642 3.09986 28.9924C4.93189 30.8244 7.14673 31.3908 9.64673 31.5119C11.803 31.633 13.9397 31.6135 16.092 31.6135C18.2483 31.6135 20.385 31.633 22.5374 31.5119C25.0374 31.3908 27.2561 30.8205 29.0842 28.9924C30.9163 27.1603 31.4827 24.9455 31.6038 22.4455C31.7288 20.2932 31.7053 18.1564 31.7053 16.0002ZM16.0881 24.0119C11.6545 24.0119 8.07642 20.4338 8.07642 16.0002C8.07642 11.5666 11.6545 7.98847 16.0881 7.98847C20.5217 7.98847 24.0999 11.5666 24.0999 16.0002C24.0999 20.4338 20.5217 24.0119 16.0881 24.0119ZM24.428 9.53144C23.3928 9.53144 22.5569 8.6955 22.5569 7.66034C22.5569 6.62519 23.3928 5.78925 24.428 5.78925C25.4631 5.78925 26.2991 6.62519 26.2991 7.66034C26.2994 7.90614 26.2512 8.14959 26.1573 8.37674C26.0634 8.60389 25.9255 8.81028 25.7517 8.98409C25.5779 9.1579 25.3715 9.29571 25.1444 9.38964C24.9172 9.48356 24.6738 9.53174 24.428 9.53144Z" fill="white"/>
</svg>
