<svg width="29" height="35" viewBox="0 0 29 35" fill="none" xmlns="http://www.w3.org/2000/svg">
<path fill-rule="evenodd" clip-rule="evenodd" d="M14.5 0C22.4952 0 29 6.554 29 14.6107C29 24.5147 17.6531 34.2727 14.5 34.2727C11.3469 34.2727 0 24.5147 0 14.6107C0 6.554 6.50479 0 14.5 0ZM14.5 2.63636C7.9583 2.63636 2.63636 8.00927 2.63636 14.6107C2.63636 23.0102 12.521 31.1935 14.5 31.6293C16.479 31.1917 26.3636 23.0084 26.3636 14.6107C26.3636 8.00927 21.0417 2.63636 14.5 2.63636ZM14.5018 8.78788C17.6513 8.78788 20.2139 11.3504 20.2139 14.5018C20.2139 17.6513 17.6513 20.2121 14.5018 20.2121C11.3522 20.2121 8.78964 17.6513 8.78964 14.5018C8.78964 11.3504 11.3522 8.78788 14.5018 8.78788ZM14.5018 11.4242C12.8057 11.4242 11.426 12.8039 11.426 14.5018C11.426 16.1978 12.8057 17.5758 14.5018 17.5758C16.1978 17.5758 17.5775 16.1978 17.5775 14.5018C17.5775 12.8039 16.1978 11.4242 14.5018 11.4242Z" fill="white"/>
</svg>
