<svg width="29" height="29" viewBox="0 0 29 29" fill="none" xmlns="http://www.w3.org/2000/svg">
<path fill-rule="evenodd" clip-rule="evenodd" d="M3.33727 4.33051C3.3401 4.33051 3.26937 4.40407 3.18025 4.49178C2.83792 4.82421 2.12921 5.51594 2.12206 6.96308C2.11082 8.98737 3.44195 12.746 9.8515 19.1541C16.2313 25.5311 19.9843 26.8778 22.0128 26.8778H22.0425C23.4896 26.8707 24.18 26.1606 24.5138 25.8197C24.6157 25.715 24.6977 25.6386 24.7557 25.5905C26.1646 24.1731 26.8861 23.1178 26.8791 22.4416C26.8691 21.7513 26.0104 20.9351 24.8236 19.8062C24.4459 19.4469 24.0357 19.0565 23.6028 18.6236C22.481 17.5047 21.9251 17.6956 20.7029 18.1257C19.0124 18.7184 16.6925 19.5247 13.0881 15.9189C9.47804 12.3117 10.2858 9.99456 10.8771 8.30412C11.3043 7.0819 11.4995 6.52455 10.3763 5.40136C9.93637 4.96284 9.5417 4.54695 9.17815 4.165C8.05637 2.98523 7.24722 2.13223 6.56114 2.12232H6.54983C5.87223 2.12232 4.81977 2.8466 3.3302 4.33617C3.33444 4.33193 3.33586 4.33051 3.33727 4.33051ZM22.0142 28.9997C18.489 28.9997 13.893 26.1931 8.35202 20.655C2.78982 15.0942 -0.0209818 10.484 0.00011791 6.95176C0.0129685 4.61767 1.2366 3.42234 1.69634 2.97391C1.72039 2.94421 1.80243 2.86357 1.83073 2.83528C3.85926 0.805334 5.22718 -0.0151327 6.58802 0.000210969C8.16813 0.0216469 9.29273 1.20425 10.7158 2.70231C11.0681 3.07293 11.45 3.47609 11.8758 3.90047C13.9411 5.96579 13.3526 7.65057 12.8802 9.00293C12.3652 10.4784 11.9196 11.7515 14.5876 14.4194C17.2583 17.0874 18.5315 16.6418 20.0012 16.1226C21.355 15.6501 23.0355 15.0588 25.1037 17.1241C25.5224 17.5429 25.9199 17.9206 26.2863 18.27C27.7914 19.7001 28.9797 20.8304 28.9998 22.4147C29.0165 23.7657 28.196 25.1421 26.1703 27.1692L25.2734 26.5609L26.0317 27.3022C25.5832 27.7619 24.3893 28.987 22.0538 28.9997H22.0142Z" fill="white"/>
</svg>
