<svg width="32" height="32" viewBox="0 0 32 32" fill="none" xmlns="http://www.w3.org/2000/svg">
<path fill-rule="evenodd" clip-rule="evenodd" d="M16 0C24.8224 0 32 7.1776 32 16C32 24.8224 24.8224 32 16 32C7.1776 32 0 24.8224 0 16C0 7.1776 7.1776 0 16 0ZM16 2.4C8.5008 2.4 2.4 8.5008 2.4 16C2.4 23.4992 8.5008 29.6 16 29.6C23.4992 29.6 29.6 23.4992 29.6 16C29.6 8.5008 23.4992 2.4 16 2.4ZM15.4579 8.15264C16.1219 8.15264 16.6579 8.69024 16.6579 9.35264V16.4278L22.1059 19.6758C22.6739 20.0166 22.8611 20.7526 22.5219 21.3222C22.2963 21.6982 21.8979 21.9078 21.4899 21.9078C21.2803 21.9078 21.0691 21.8534 20.8755 21.7398L14.8435 18.1414C14.4819 17.9238 14.2579 17.5318 14.2579 17.1094V9.35264C14.2579 8.69024 14.7955 8.15264 15.4579 8.15264Z" fill="white"/>
</svg>
