<svg width="34" height="33" viewBox="0 0 34 33" fill="none" xmlns="http://www.w3.org/2000/svg">
<path d="M30.6202 7.61003C25.6838 -0.000251569 15.6053 -2.26277 7.78935 2.46795C0.179074 7.19866 -2.28912 17.4828 2.64727 25.0931L3.05864 25.7101L1.41317 31.8806L7.58367 30.2352L8.20072 30.6465C10.8746 32.0863 13.7542 32.9091 16.6337 32.9091C19.719 32.9091 22.8042 32.0863 25.4781 30.4409C33.0884 25.5045 35.3509 15.426 30.6202 7.61003ZM26.3008 23.4476C25.4781 24.6817 24.4497 25.5045 23.0099 25.7101C22.1872 25.7101 21.1588 26.1215 17.0451 24.476C13.5485 22.8306 10.6689 20.1567 8.61209 17.0715C7.37799 15.6317 6.76094 13.7805 6.55525 11.9294C6.55525 10.2839 7.1723 8.84413 8.20072 7.81571C8.61209 7.40434 9.02345 7.19866 9.43482 7.19866H10.4632C10.8746 7.19866 11.286 7.19866 11.4917 8.02139C11.903 9.04981 12.9314 11.518 12.9314 11.7237C13.1371 11.9294 13.1371 12.3407 12.9314 12.5464C13.1371 12.9578 12.9314 13.3692 12.7258 13.5748C12.5201 13.7805 12.3144 14.1919 12.1087 14.3976C11.6973 14.6033 11.4917 15.0146 11.6973 15.426C12.5201 16.6601 13.5485 17.8942 14.5769 18.9226C15.811 19.951 17.0451 20.7738 18.4849 21.3908C18.8962 21.5965 19.3076 21.5965 19.5133 21.1851C19.719 20.7738 20.7474 19.7453 21.1588 19.334C21.5701 18.9226 21.7758 18.9226 22.1872 19.1283L25.4781 20.7738C25.8895 20.9794 26.3008 21.1851 26.5065 21.3908C26.7122 22.0079 26.7122 22.8306 26.3008 23.4476Z" fill="white"/>
</svg>
