<svg width="32" height="32" viewBox="0 0 32 32" fill="none" xmlns="http://www.w3.org/2000/svg">
<path d="M15.9999 10.7932C13.1328 10.7932 10.7929 13.133 10.7929 16.0002C10.7929 18.8674 13.1328 21.2072 15.9999 21.2072C18.8671 21.2072 21.207 18.8674 21.207 16.0002C21.207 13.133 18.8671 10.7932 15.9999 10.7932ZM31.6171 16.0002C31.6171 13.8439 31.6367 11.7072 31.5156 9.55487C31.3945 7.05487 30.8242 4.83612 28.996 3.008C27.164 1.17597 24.9492 0.60956 22.4492 0.488467C20.2929 0.367373 18.1562 0.386904 16.0038 0.386904C13.8476 0.386904 11.7109 0.367373 9.55854 0.488467C7.05854 0.60956 4.83979 1.17987 3.01166 3.008C1.17963 4.84003 0.613222 7.05487 0.492129 9.55487C0.371035 11.7111 0.390566 13.8478 0.390566 16.0002C0.390566 18.1525 0.371035 20.2932 0.492129 22.4455C0.613222 24.9455 1.18354 27.1642 3.01166 28.9924C4.84369 30.8244 7.05854 31.3908 9.55854 31.5119C11.7148 31.633 13.8515 31.6135 16.0038 31.6135C18.1601 31.6135 20.2968 31.633 22.4492 31.5119C24.9492 31.3908 27.1679 30.8205 28.996 28.9924C30.8281 27.1603 31.3945 24.9455 31.5156 22.4455C31.6406 20.2932 31.6171 18.1564 31.6171 16.0002ZM15.9999 24.0119C11.5663 24.0119 7.98822 20.4338 7.98822 16.0002C7.98822 11.5666 11.5663 7.98847 15.9999 7.98847C20.4335 7.98847 24.0117 11.5666 24.0117 16.0002C24.0117 20.4338 20.4335 24.0119 15.9999 24.0119ZM24.3398 9.53144C23.3046 9.53144 22.4687 8.6955 22.4687 7.66034C22.4687 6.62519 23.3046 5.78925 24.3398 5.78925C25.3749 5.78925 26.2109 6.62519 26.2109 7.66034C26.2112 7.90614 26.163 8.14959 26.0691 8.37674C25.9752 8.60389 25.8373 8.81028 25.6635 8.98409C25.4897 9.1579 25.2833 9.29571 25.0562 9.38964C24.829 9.48356 24.5856 9.53174 24.3398 9.53144Z" fill="black"/>
</svg>
